#Comment line ignore any data following # character 
#Hierarchical Translation and Rotation (.htr) file 
[Header]	
#Header keywords are followed by a single value 
FileType HTR		#Single word string
DataType HTRS		#Translation followed by rotation and scale data
FileVersion 1		#integer
NumSegments 64		#integer
NumFrames 3		#integer
DataFrameRate 30		#integer, data frame rate in this file
EulerRotationOrder ZYX
CalibrationUnits mm
RotationUnits Degrees
GlobalAxisofGravity Y
BoneLengthAxis Y
ScaleFactor 1.00
[SegmentNames&Hierarchy]
#CHILD	PARENT
Pinger_Root GLOBAL
Pelvis Pinger_Root
L_Hip Pelvis
R_Hip Pelvis
Rear_Leg01 Pelvis
Spine1 Pelvis
L_Leg01 L_Hip
L_Leg02 L_Leg01
L_Leg03 L_Leg02
L_Foot L_Leg03
L_Toe1_01 L_Foot
L_Toe2_01 L_Foot
L_Toe3_01 L_Foot
planeAlignerLeft L_Foot
L_Toe1_02 L_Toe1_01
L_Toe1_03 L_Toe1_02
L_Toe2_02 L_Toe2_01
L_Toe2_03 L_Toe2_02
L_Toe3_02 L_Toe3_01
L_Toe3_03 L_Toe3_02
planeLockWeightLeft planeAlignerLeft
R_Leg01 R_Hip
R_Leg02 R_Leg01
R_Leg03 R_Leg02
R_Foot R_Leg03
planeAlignerRight R_Foot
R_Toe1_01 R_Foot
R_Toe2_01 R_Foot
R_Toe3_01 R_Foot
planeLockWeightRight planeAlignerRight
R_Toe1_02 R_Toe1_01
R_Toe1_03 R_Toe1_02
R_Toe2_02 R_Toe2_01
R_Toe2_03 R_Toe2_02
R_Toe3_02 R_Toe3_01
R_Toe3_03 R_Toe3_02
Rear_Leg02 Rear_Leg01
Rear_Leg03 Rear_Leg02
Rear_Leg04 Rear_Leg03
Rear_Foot Rear_Leg04
planeAlignerCenter Rear_Foot
Rear_Toe1_01 Rear_Foot
Rear_Toe2_01 Rear_Foot
Rear_Toe3_01 Rear_Foot
planeLockWeightCenter planeAlignerCenter
Rear_Toe1_02 Rear_Toe1_01
Rear_Toe1_03 Rear_Toe1_02
Rear_Toe2_02 Rear_Toe2_01
Rear_Toe2_03 Rear_Toe2_02
Rear_Toe3_02 Rear_Toe3_01
Rear_Toe3_03 Rear_Toe3_02
Back_Bone Spine1
Head Spine1
Motor_Bone Back_Bone
Ping_Mechanism Back_Bone
BN_LookIK Head
bottomMouth Head
L_Mouth01 Head
L_mouthFront Head
mouthGun Head
R_Mouth01 Head
R_mouthFront Head
TopMouth Head
weapon_bone Head
[BasePosition]
#SegmentName Tx, Ty, Tz, Rx, Ry, Rz, BoneLength
Pinger_Root 0.000000 0.000000 0.000000 -90.000000 0.000000 0.000000 10.000000 
Pelvis 0.000000 0.000000 0.000000 0.000000 0.000000 0.000000 10.000000 
L_Hip 0.000000 0.000000 0.000000 0.000000 0.000000 0.000000 10.000000 
R_Hip 0.000000 0.000000 0.000000 0.000000 0.000000 0.000000 10.000000 
Rear_Leg01 0.000000 0.000000 0.000000 0.000000 0.000000 0.000000 10.000000 
Spine1 0.000000 0.000000 0.000000 0.000000 0.000000 0.000000 10.000000 
L_Leg01 0.000000 0.000000 0.000000 0.000000 0.000000 0.000000 10.000000 
L_Leg02 0.000000 0.000000 0.000000 0.000000 0.000000 0.000000 10.000000 
L_Leg03 0.000000 0.000000 0.000000 0.000000 0.000000 0.000000 10.000000 
L_Foot 0.000000 0.000000 0.000000 0.000000 0.000000 0.000000 10.000000 
L_Toe1_01 0.000000 0.000000 0.000000 0.000000 0.000000 0.000000 10.000000 
L_Toe2_01 0.000000 0.000000 0.000000 0.000000 0.000000 0.000000 10.000000 
L_Toe3_01 0.000000 0.000000 0.000000 0.000000 0.000000 0.000000 10.000000 
planeAlignerLeft 0.000000 0.000000 0.000000 0.000000 0.000000 0.000000 10.000000 
L_Toe1_02 0.000000 0.000000 0.000000 0.000000 0.000000 0.000000 10.000000 
L_Toe1_03 0.000000 0.000000 0.000000 0.000000 0.000000 0.000000 10.000000 
L_Toe2_02 0.000000 0.000000 0.000000 0.000000 0.000000 0.000000 10.000000 
L_Toe2_03 0.000000 0.000000 0.000000 0.000000 0.000000 0.000000 10.000000 
L_Toe3_02 0.000000 0.000000 0.000000 0.000000 0.000000 0.000000 10.000000 
L_Toe3_03 0.000000 0.000000 0.000000 0.000000 0.000000 0.000000 10.000000 
planeLockWeightLeft 0.000000 0.000000 0.000000 0.000000 0.000000 0.000000 10.000000 
R_Leg01 0.000000 0.000000 0.000000 0.000000 0.000000 0.000000 10.000000 
R_Leg02 0.000000 0.000000 0.000000 0.000000 0.000000 0.000000 10.000000 
R_Leg03 0.000000 0.000000 0.000000 0.000000 0.000000 0.000000 10.000000 
R_Foot 0.000000 0.000000 0.000000 0.000000 0.000000 0.000000 10.000000 
planeAlignerRight 0.000000 0.000000 0.000000 0.000000 0.000000 0.000000 10.000000 
R_Toe1_01 0.000000 0.000000 0.000000 0.000000 0.000000 0.000000 10.000000 
R_Toe2_01 0.000000 0.000000 0.000000 0.000000 0.000000 0.000000 10.000000 
R_Toe3_01 0.000000 0.000000 0.000000 0.000000 0.000000 0.000000 10.000000 
planeLockWeightRight 0.000000 0.000000 0.000000 0.000000 0.000000 0.000000 10.000000 
R_Toe1_02 0.000000 0.000000 0.000000 0.000000 0.000000 0.000000 10.000000 
R_Toe1_03 0.000000 0.000000 0.000000 0.000000 0.000000 0.000000 10.000000 
R_Toe2_02 0.000000 0.000000 0.000000 0.000000 0.000000 0.000000 10.000000 
R_Toe2_03 0.000000 0.000000 0.000000 0.000000 0.000000 0.000000 10.000000 
R_Toe3_02 0.000000 0.000000 0.000000 0.000000 0.000000 0.000000 10.000000 
R_Toe3_03 0.000000 0.000000 0.000000 0.000000 0.000000 0.000000 10.000000 
Rear_Leg02 0.000000 0.000000 0.000000 0.000000 0.000000 0.000000 10.000000 
Rear_Leg03 0.000000 0.000000 0.000000 0.000000 0.000000 0.000000 10.000000 
Rear_Leg04 0.000000 0.000000 0.000000 0.000000 0.000000 0.000000 10.000000 
Rear_Foot 0.000000 0.000000 0.000000 0.000000 0.000000 0.000000 10.000000 
planeAlignerCenter 0.000000 0.000000 0.000000 0.000000 0.000000 0.000000 10.000000 
Rear_Toe1_01 0.000000 0.000000 0.000000 0.000000 0.000000 0.000000 10.000000 
Rear_Toe2_01 0.000000 0.000000 0.000000 0.000000 0.000000 0.000000 10.000000 
Rear_Toe3_01 0.000000 0.000000 0.000000 0.000000 0.000000 0.000000 10.000000 
planeLockWeightCenter 0.000000 0.000000 0.000000 0.000000 0.000000 0.000000 10.000000 
Rear_Toe1_02 0.000000 0.000000 0.000000 0.000000 0.000000 0.000000 10.000000 
Rear_Toe1_03 0.000000 0.000000 0.000000 0.000000 0.000000 0.000000 10.000000 
Rear_Toe2_02 0.000000 0.000000 0.000000 0.000000 0.000000 0.000000 10.000000 
Rear_Toe2_03 0.000000 0.000000 0.000000 0.000000 0.000000 0.000000 10.000000 
Rear_Toe3_02 0.000000 0.000000 0.000000 0.000000 0.000000 0.000000 10.000000 
Rear_Toe3_03 0.000000 0.000000 0.000000 0.000000 0.000000 0.000000 10.000000 
Back_Bone 0.000000 0.000000 0.000000 0.000000 0.000000 0.000000 10.000000 
Head 0.000000 0.000000 0.000000 0.000000 0.000000 0.000000 10.000000 
Motor_Bone 0.000000 0.000000 0.000000 0.000000 0.000000 0.000000 10.000000 
Ping_Mechanism 0.000000 0.000000 0.000000 0.000000 0.000000 0.000000 10.000000 
BN_LookIK 0.000000 0.000000 0.000000 0.000000 0.000000 0.000000 10.000000 
bottomMouth 0.000000 0.000000 0.000000 0.000000 0.000000 0.000000 10.000000 
L_Mouth01 0.000000 0.000000 0.000000 0.000000 0.000000 0.000000 10.000000 
L_mouthFront 0.000000 0.000000 0.000000 0.000000 0.000000 0.000000 10.000000 
mouthGun 0.000000 0.000000 0.000000 0.000000 0.000000 0.000000 10.000000 
R_Mouth01 0.000000 0.000000 0.000000 0.000000 0.000000 0.000000 10.000000 
R_mouthFront 0.000000 0.000000 0.000000 0.000000 0.000000 0.000000 10.000000 
TopMouth 0.000000 0.000000 0.000000 0.000000 0.000000 0.000000 10.000000 
weapon_bone 0.000000 0.000000 0.000000 0.000000 0.000000 0.000000 10.000000 
#Beginning of Data. Separated by tabs
#Fr	Tx	Ty	Tz	Rx	Ry	Rz	SF
[Pinger_Root]
89 0.000000 0.000000 0.000000 -0.000069 -0.000029 -44.999985 0.000000
90 0.000000 0.000000 0.000000 -0.000069 -0.000029 -44.999992 0.000000
91 0.000000 0.000000 0.000000 -0.000069 -0.000029 -44.999992 0.000000
[Pelvis]
89 -539.227783 416.207001 4196.076660 -86.872955 -81.427048 78.802673 4251.006348
90 -491.035370 464.399384 4230.601563 -83.240303 -81.951111 75.183258 4284.247070
91 -427.409698 528.024963 4256.678711 -83.828705 -82.569832 75.748154 4310.545410
[L_Hip]
89 5.766392 125.831482 872.656799 160.158691 -45.484913 122.312202 881.701050
90 5.766392 125.831482 872.656799 160.158691 -45.484905 122.312202 881.701050
91 5.766392 125.831482 872.656799 160.158691 -45.484905 122.312202 881.701050
[R_Hip]
89 5.765438 125.836372 -872.654907 38.087841 49.812687 125.703735 881.699829
90 5.765438 125.836372 -872.654907 38.087841 49.812687 125.703735 881.699829
91 5.765438 125.836372 -872.654907 38.087841 49.812687 125.703735 881.699829
[Rear_Leg01]
89 -192.298416 -925.602966 -0.001907 170.609161 19.878973 -173.761093 945.367432
90 -192.298416 -925.602966 -0.001907 170.826141 19.580334 -172.607437 945.367432
91 -192.298416 -925.602966 -0.001907 170.947388 18.583313 -171.167084 945.367432
[Spine1]
89 290.604584 5.007505 0.000477 6.584309 -3.396647 18.112291 290.647736
90 290.604584 5.007505 0.000477 6.855347 -3.301578 18.373161 290.647736
91 290.604584 5.007505 0.000477 6.987159 -2.943350 18.592007 290.647736
[L_Leg01]
89 761.932007 -0.002384 -0.069261 22.665836 -31.073151 4.365492 761.932068
90 761.932007 -0.002384 -0.069261 24.792147 -30.240923 0.791697 761.932068
91 761.932007 -0.002384 -0.069261 27.338896 -29.028976 -1.923231 761.932068
[L_Leg02]
89 1441.140503 -0.000954 -0.000715 5.375486 -0.153241 -153.848175 1441.140503
90 1441.140503 -0.000954 -0.000715 5.111078 -0.160110 -151.532837 1441.140503
91 1441.140503 -0.000954 -0.000715 4.954758 -0.165007 -150.158615 1441.140503
[L_Leg03]
89 1686.963989 -0.000715 -0.000954 -0.036338 0.017266 120.795998 1686.963989
90 1686.963989 -0.000715 -0.000954 -0.036360 0.017219 120.644936 1686.963989
91 1686.963989 -0.000715 -0.000954 -0.036383 0.017171 120.493843 1686.963989
[L_Foot]
89 3041.570068 -30.715107 11.297464 -13.962905 22.643511 54.224895 3041.746094
90 3041.570068 -30.715107 11.297464 -14.743288 22.930157 54.382202 3041.746094
91 3041.570068 -30.715107 11.297464 -15.922708 23.137436 54.785027 3041.746094
[L_Toe1_01]
89 -188.216690 -224.732346 -21.137953 89.330788 -2.396121 -161.427643 293.899567
90 -188.216690 -224.732346 -21.137953 89.330788 -2.396121 -161.427643 293.899567
91 -188.216690 -224.732346 -21.137953 89.330788 -2.396121 -161.427643 293.899567
[L_Toe2_01]
89 200.746536 -219.926590 148.838394 -78.791496 -10.652695 -43.374847 332.896027
90 200.746536 -219.926590 148.838394 -78.791496 -10.652695 -43.374847 332.896027
91 200.746536 -219.926590 148.838394 -78.791496 -10.652695 -43.374847 332.896027
[L_Toe3_01]
89 188.832520 -219.859131 -191.078659 -109.186691 26.104874 -48.222931 347.140900
90 188.832520 -219.859131 -191.078659 -109.186691 26.104877 -48.222935 347.140900
91 188.832520 -219.859131 -191.078659 -109.186691 26.104874 -48.222931 347.140900
[planeAlignerLeft]
89 0.812531 -811.448792 -0.314951 0.000000 -90.000000 -90.001900 811.449280
90 0.812531 -811.448792 -0.314951 0.000000 -90.000000 -90.001900 811.449280
91 0.812531 -811.448792 -0.314951 0.000000 -90.000000 -90.001900 811.449280
[L_Toe1_02]
89 413.761139 0.000477 0.000000 0.000203 -25.410625 -0.000182 413.761139
90 413.761139 0.000477 0.000000 0.000203 -25.410625 -0.000182 413.761139
91 413.761139 0.000477 0.000000 0.000203 -25.410625 -0.000182 413.761139
[L_Toe1_03]
89 464.317322 0.000358 -0.000089 0.004933 62.473137 0.004933 464.317322
90 464.317322 0.000358 -0.000089 0.004933 62.473137 0.004933 464.317322
91 464.317322 0.000358 -0.000089 0.004933 62.473137 0.004933 464.317322
[L_Toe2_02]
89 342.235809 -0.000477 0.000238 -0.000101 -70.104240 0.000129 342.235809
90 342.235809 -0.000477 0.000238 -0.000101 -70.104240 0.000129 342.235809
91 342.235809 -0.000477 0.000238 -0.000101 -70.104240 0.000129 342.235809
[L_Toe2_03]
89 420.210846 -0.000715 0.000000 0.016997 82.081551 0.016997 420.210846
90 420.210846 -0.000715 0.000000 0.016997 82.081528 0.016997 420.210846
91 420.210846 -0.000715 0.000000 0.016997 82.081528 0.016997 420.210846
[L_Toe3_02]
89 329.270111 0.000954 0.000000 0.001178 -80.668365 0.001178 329.270111
90 329.270111 0.000954 0.000000 0.001178 -80.668320 0.001178 329.270111
91 329.270111 0.000954 0.000000 0.001178 -80.668320 0.001178 329.270111
[L_Toe3_03]
89 439.137451 -0.001907 0.000954 -179.996323 77.872643 -179.992813 439.137451
90 439.137451 -0.001907 0.000954 -179.996323 77.872643 -179.992813 439.137451
91 439.137451 -0.001907 0.000954 -179.996323 77.872643 -179.992813 439.137451
[planeLockWeightLeft]
89 -0.000954 0.000238 -0.000305 -0.011826 -0.004376 0.005620 0.001029
90 -0.000954 0.000238 -0.000305 -0.011826 -0.004376 0.005620 0.001029
91 -0.000954 0.000238 -0.000305 -0.011826 -0.004376 0.005620 0.001029
[R_Leg01]
89 761.455627 -0.001907 -0.000358 106.739899 -31.202787 30.862524 761.455688
90 761.455627 -0.001907 -0.000358 112.531799 -26.881935 28.621645 761.455688
91 761.455627 -0.001907 -0.000358 114.612915 -25.036673 29.110796 761.455688
[R_Leg02]
89 1441.140625 0.000000 -0.000238 -1.453269 -0.247947 -121.982414 1441.140625
90 1441.140625 0.000000 -0.000238 -1.423615 -0.233286 -121.229317 1441.140625
91 1441.140625 0.000000 -0.000238 -1.449006 -0.249988 -121.954147 1441.140625
[R_Leg03]
89 1686.963989 0.000954 0.001431 0.079979 -0.042104 132.198853 1686.963989
90 1686.963989 0.000954 0.001431 0.080048 -0.041972 132.009445 1686.963989
91 1686.963989 0.000954 0.001431 0.079981 -0.042101 132.193436 1686.963989
[R_Foot]
89 3041.560059 -30.531288 -11.204481 22.066931 -21.297503 31.672161 3041.734131
90 3041.560059 -30.531288 -11.204481 21.223450 -21.399240 31.869198 3041.734131
91 3041.560059 -30.531288 -11.204481 20.091913 -21.635252 33.260925 3041.734131
[planeAlignerRight]
89 -0.635147 -812.270569 -0.364304 0.000000 -89.960434 -90.005180 812.270874
90 -0.635147 -812.270569 -0.364304 0.000000 -89.960434 -90.005180 812.270874
91 -0.635147 -812.270569 -0.364304 0.000000 -89.960434 -90.005180 812.270874
[R_Toe1_01]
89 -188.383347 -224.864899 21.052242 90.478722 3.231926 -161.378860 294.101532
90 -188.383347 -224.864899 21.052242 90.478722 3.231926 -161.378860 294.101532
91 -188.383347 -224.864899 21.052242 90.478722 3.231926 -161.378860 294.101532
[R_Toe2_01]
89 200.637817 -220.002121 -148.787384 -105.368958 18.813929 -49.808262 332.857574
90 200.637817 -220.002121 -148.787384 -105.368958 18.813929 -49.808262 332.857574
91 200.637817 -220.002121 -148.787384 -105.368950 18.813925 -49.808262 332.857574
[R_Toe3_01]
89 188.606735 -220.092957 191.126343 -76.041084 -6.322367 -46.892487 347.192566
90 188.606735 -220.092957 191.126343 -76.041084 -6.322367 -46.892487 347.192566
91 188.606735 -220.092957 191.126343 -76.041084 -6.322367 -46.892487 347.192566
[planeLockWeightRight]
89 -0.000477 0.000000 0.000000 -0.011823 -0.004379 -0.000027 0.000477
90 -0.000477 0.000000 0.000000 -0.011823 -0.004379 -0.000027 0.000477
91 -0.000477 0.000000 0.000000 -0.011823 -0.004379 -0.000027 0.000477
[R_Toe1_02]
89 413.762085 0.000477 -0.000119 0.001401 -23.743965 0.001401 413.762085
90 413.762085 0.000477 -0.000119 0.001401 -23.743965 0.001401 413.762085
91 413.762085 0.000477 -0.000119 0.001401 -23.743965 0.001401 413.762085
[R_Toe1_03]
89 464.317810 0.000000 0.001088 0.008919 74.877419 0.008919 464.317810
90 464.317810 0.000000 0.001088 0.008919 74.877419 0.008919 464.317810
91 464.317810 0.000000 0.001088 0.008919 74.877419 0.008919 464.317810
[R_Toe2_02]
89 342.234741 -0.000954 0.000238 0.001188 -72.305893 0.001188 342.234741
90 342.234741 -0.000954 0.000238 0.001188 -72.305840 0.001188 342.234741
91 342.234741 -0.000954 0.000238 0.001188 -72.305801 0.001188 342.234741
[R_Toe2_03]
89 420.210846 0.000715 -0.000268 0.028201 85.229767 0.028201 420.210846
90 420.210846 0.000715 -0.000268 0.028201 85.229599 0.028201 420.210846
91 420.210846 0.000715 -0.000268 0.028200 85.229645 0.028200 420.210846
[R_Toe3_02]
89 329.270355 -0.000477 -0.000954 0.001177 -80.843628 0.001177 329.270355
90 329.270355 -0.000477 -0.000954 0.001177 -80.843628 0.001177 329.270355
91 329.270355 -0.000477 -0.000954 0.001177 -80.843628 0.001177 329.270355
[R_Toe3_03]
89 439.137939 0.000238 0.001431 -179.996658 77.078049 -179.993134 439.137939
90 439.137939 0.000238 0.001431 -179.996658 77.078140 -179.993134 439.137939
91 439.137939 0.000238 0.001431 -179.996658 77.078156 -179.993134 439.137939
[Rear_Leg02]
89 1162.777710 -0.029802 0.005960 0.054353 0.084856 -145.076096 1162.777710
90 1162.777710 -0.029802 0.005960 0.054867 0.081681 -143.330627 1162.777710
91 1162.777710 -0.029802 0.005960 0.055285 0.078491 -141.585144 1162.777710
[Rear_Leg03]
89 607.192505 -0.013351 -0.073195 0.010338 -0.005412 71.624763 607.192505
90 607.192505 -0.013351 -0.073195 0.010366 -0.005357 71.008789 607.192505
91 607.192505 -0.013351 -0.073195 0.010391 -0.005310 70.490822 607.192505
[Rear_Leg04]
89 995.874512 -0.020504 -0.011921 -0.041245 -0.016366 74.076073 995.874573
90 995.874512 -0.020504 -0.011921 -0.041073 -0.016813 72.839767 995.874573
91 995.874512 -0.020504 -0.011921 -0.040892 -0.017256 71.603188 995.874573
[Rear_Foot]
89 3096.176270 -0.067472 -0.041425 -0.140487 73.530571 -174.950287 3096.176270
90 3096.176270 -0.067472 -0.041425 -0.148180 74.375648 -174.549911 3096.176270
91 3096.176270 -0.067472 -0.041425 -0.189476 75.479042 -173.844223 3096.176270
[planeAlignerCenter]
89 0.350077 0.966311 -838.790894 0.000009 0.000003 -179.999985 838.791565
90 0.350077 0.966311 -838.790894 0.000009 0.000003 -179.999985 838.791565
91 0.350077 0.966311 -838.790894 0.000009 0.000003 -179.999985 838.791565
[Rear_Toe1_01]
89 0.653352 83.966492 -371.173737 0.293877 41.922920 90.412048 380.553192
90 0.653352 83.966492 -371.173737 0.293923 41.922886 90.412086 380.553192
91 0.653352 83.966492 -371.173737 0.293964 41.922855 90.412102 380.553192
[Rear_Toe2_01]
89 178.200760 -294.826019 -362.060547 -2.183101 34.542522 -64.361397 499.765686
90 178.200760 -294.826019 -362.060547 -2.183071 34.542473 -64.361366 499.765686
91 178.200760 -294.826019 -362.060547 -2.183040 34.542427 -64.361336 499.765686
[Rear_Toe3_01]
89 -153.359680 -308.780914 -362.060852 3.870836 33.514236 -112.318695 499.952881
90 -153.359680 -308.780914 -362.060852 3.870838 33.514248 -112.318695 499.952881
91 -153.359680 -308.780914 -362.060852 3.870836 33.514236 -112.318695 499.952881
[planeLockWeightCenter]
89 -0.000062 0.000238 0.000000 -0.011814 -0.004373 -0.000015 0.000246
90 -0.000062 0.000238 0.000000 -0.011814 -0.004373 -0.000015 0.000246
91 -0.000062 0.000238 0.000000 -0.011814 -0.004373 -0.000015 0.000246
[Rear_Toe1_02]
89 379.707825 0.194073 0.000477 -0.000242 -31.674944 0.006934 379.707855
90 379.707825 0.194073 0.000477 -0.000242 -31.674982 0.006934 379.707855
91 379.707825 0.194073 0.000477 -0.000242 -31.675037 0.006934 379.707855
[Rear_Toe1_03]
89 500.129700 0.165701 0.000119 -0.000106 51.880203 0.007293 500.129761
90 500.129700 0.165701 0.000119 -0.000106 51.880337 0.007293 500.129761
91 500.129700 0.165701 0.000119 -0.000106 51.880478 0.007293 500.129761
[Rear_Toe2_02]
89 340.494507 0.000238 -0.000954 0.001192 -69.854523 0.001192 340.494507
90 340.494507 0.000238 -0.000954 0.001192 -69.854523 0.001192 340.494507
91 340.494507 0.000238 -0.000954 0.001192 -69.854523 0.001192 340.494507
[Rear_Toe2_03]
89 433.103577 0.000000 0.000238 0.006694 69.804291 0.006694 433.103546
90 433.103577 0.000000 0.000238 0.006694 69.804291 0.006694 433.103546
91 433.103577 0.000000 0.000238 0.006694 69.804291 0.006694 433.103546
[Rear_Toe3_02]
89 340.494141 -0.000358 -0.000477 0.008285 -67.268761 -0.009458 340.494171
90 340.494141 -0.000358 -0.000477 0.008285 -67.268761 -0.009458 340.494171
91 340.494141 -0.000358 -0.000477 0.008285 -67.268761 -0.009458 340.494171
[Rear_Toe3_03]
89 433.103577 0.001431 -0.000238 -0.000971 65.951027 -0.004546 433.103546
90 433.103577 0.001431 -0.000238 -0.000971 65.951088 -0.004546 433.103546
91 433.103577 0.001431 -0.000238 -0.000971 65.951126 -0.004546 433.103546
[Back_Bone]
89 1312.175781 -701.934692 0.000954 0.000023 -0.000007 -85.606667 1488.125488
90 1312.175781 -701.934692 0.000954 0.000023 -0.000007 -85.606667 1488.125488
91 1312.175781 -701.934692 0.000954 0.000023 -0.000007 -85.606667 1488.125488
[Head]
89 1406.159424 809.709290 0.001431 0.000625 -1.475623 7.768026 1622.625488
90 1406.159424 809.709290 0.001431 0.000625 -1.475624 7.768028 1622.625488
91 1406.159424 809.709290 0.001431 0.000625 -1.475623 7.768025 1622.625488
[Motor_Bone]
89 1158.364380 -417.834747 0.000477 -0.119161 0.064310 -105.915703 1231.419434
90 1158.364380 -417.834747 0.000477 -0.118567 0.064605 -105.915703 1231.419434
91 1158.364380 -417.834747 0.000477 -0.117972 0.064900 -105.915688 1231.419434
[Ping_Mechanism]
89 1233.996948 -441.136566 -0.944418 0.000103 -0.000053 82.120995 1310.477295
90 1233.979248 -441.181976 -0.893610 0.000103 -0.000053 82.120995 1310.475952
91 1233.961548 -441.227417 -0.842801 0.000103 -0.000053 82.120995 1310.474609
[BN_LookIK]
89 193.241119 1380.371704 -0.002861 0.000000 89.965736 -31.038179 1393.832153
90 193.241119 1380.371704 -0.002861 0.000000 89.965736 -31.038179 1393.832153
91 193.241119 1380.371704 -0.002861 0.000000 89.965736 -31.038179 1393.832153
[bottomMouth]
89 -435.092926 615.759399 -0.000954 -0.000022 0.000016 73.527184 753.966492
90 -435.092926 615.759399 -0.000954 -0.000022 0.000016 73.527184 753.966492
91 -435.092926 615.759399 -0.000954 -0.000022 0.000016 73.527184 753.966492
[L_Mouth01]
89 554.440979 7.658243 838.222046 150.204178 23.759130 109.605339 1005.027161
90 554.440979 7.658243 838.222046 150.204178 23.759130 109.605339 1005.027161
91 554.440979 7.658243 838.222046 150.204178 23.759130 109.605339 1005.027161
[L_mouthFront]
89 551.629089 934.514771 339.150421 0.000081 2.804060 79.119301 1136.941284
90 551.629089 934.514771 339.150421 0.000081 2.804060 79.119301 1136.941284
91 551.629089 934.514771 339.150421 0.000081 2.804060 79.119301 1136.941284
[mouthGun]
89 55.332661 1627.420898 0.000000 0.000023 0.000009 -11.038128 1628.361328
90 55.332661 1627.420898 0.000000 0.000023 0.000009 -11.038128 1628.361328
91 55.332661 1627.420898 0.000000 0.000023 0.000009 -11.038128 1628.361328
[R_Mouth01]
89 554.442383 7.659197 -838.223938 29.795891 -23.759109 109.605331 1005.029541
90 554.442383 7.659197 -838.223938 29.795891 -23.759109 109.605331 1005.029541
91 554.442383 7.659197 -838.223938 29.795891 -23.759109 109.605331 1005.029541
[R_mouthFront]
89 551.629089 934.514282 -339.151367 0.000029 -2.803930 79.119133 1136.941162
90 551.629089 934.514282 -339.151367 0.000029 -2.803930 79.119133 1136.941162
91 551.629089 934.514282 -339.151367 0.000029 -2.803930 79.119133 1136.941162
[TopMouth]
89 461.269867 -56.106091 -0.008583 -0.000059 -0.000268 92.025169 464.669525
90 461.269867 -56.106091 -0.008583 -0.000059 -0.000268 92.025169 464.669525
91 461.269867 -56.106091 -0.008583 -0.000059 -0.000268 92.025169 464.669525
[weapon_bone]
89 -987.239868 1448.372803 0.001431 0.000000 89.965736 -31.038221 1752.833740
90 -987.239868 1448.372803 0.001431 0.000000 89.965736 -31.038221 1752.833740
91 -987.239868 1448.372803 0.001431 0.000000 89.965736 -31.038221 1752.833740
